<svg xmlns="http://www.w3.org/2000/svg" width="80" height="64" viewBox="0 0 80 64"><path d="M5.407 55.664c-1.199-.427-2.245-1.23-3.14-2.408.204-1.789 1.006-5.101 2.409-9.937a499.938 499.938 0 0 1 4.572-14.876c1.646-5.08 2.794-8.474 3.444-10.18.488-1.301 1.169-2.612 2.043-3.933.873-1.32 1.92-1.981 3.14-1.981.69 0 1.462.284 2.316.853-2.439 5.568-4.887 12.213-7.346 19.936-2.46 7.722-4.339 14.57-5.64 20.544.691.244 1.708.366 3.049.366 4.186 0 8.138-1.615 11.857-4.846 3.719-3.232 6.696-7.235 8.931-12.01 2.236-4.776 3.353-9.318 3.353-13.626 0-4.714-1.178-8.22-3.535-10.516-2.358-2.296-5.508-3.444-9.45-3.444-2.642 0-5.02.477-7.133 1.432-2.113.955-3.77 2.266-4.968 3.932-1.2 1.667-1.799 3.536-1.799 5.609 0 1.097.183 2.073.549 2.926-1.666 0-2.896-.355-3.688-1.067-.793-.71-1.19-1.656-1.19-2.834 0-1.91.915-3.841 2.744-5.792 1.83-1.95 4.298-3.556 7.407-4.816 3.11-1.26 6.473-1.89 10.09-1.89 5.609 0 9.744 1.565 12.406 4.694 2.662 3.13 3.993 7.255 3.993 12.376 0 5.65-1.463 10.943-4.39 15.881-2.925 4.938-6.726 8.88-11.4 11.827-4.673 2.947-9.47 4.42-14.387 4.42-1.626 0-3.038-.214-4.237-.64zm38 0c-1.199-.427-2.245-1.23-3.14-2.408.204-1.789 1.006-5.101 2.409-9.937a499.938 499.938 0 0 1 4.572-14.876c1.646-5.08 2.794-8.474 3.444-10.18.488-1.301 1.169-2.612 2.043-3.933.873-1.32 1.92-1.981 3.14-1.981.69 0 1.462.284 2.316.853-2.439 5.568-4.887 12.213-7.346 19.936-2.46 7.722-4.339 14.57-5.64 20.544.691.244 1.708.366 3.049.366 4.186 0 8.138-1.615 11.857-4.846 3.719-3.232 6.696-7.235 8.931-12.01 2.236-4.776 3.353-9.318 3.353-13.626 0-4.714-1.178-8.22-3.535-10.516-2.358-2.296-5.508-3.444-9.45-3.444-2.642 0-5.02.477-7.133 1.432-2.113.955-3.77 2.266-4.968 3.932-1.2 1.667-1.799 3.536-1.799 5.609 0 1.097.183 2.073.549 2.926-1.666 0-2.896-.355-3.688-1.067-.793-.71-1.19-1.656-1.19-2.834 0-1.91.915-3.841 2.744-5.792 1.83-1.95 4.298-3.556 7.407-4.816 3.11-1.26 6.473-1.89 10.09-1.89 5.609 0 9.744 1.565 12.406 4.694 2.662 3.13 3.993 7.255 3.993 12.376 0 5.65-1.463 10.943-4.39 15.881-2.925 4.938-6.726 8.88-11.4 11.827-4.673 2.947-9.47 4.42-14.387 4.42-1.626 0-3.038-.214-4.237-.64z" fill="#263238"/></svg>