<svg xmlns="http://www.w3.org/2000/svg" width="250" height="140" viewBox="0 0 250 140"><g fill="#263238"><path d="M11.64 116.81c-1.237-.44-2.316-1.268-3.238-2.483.21-1.845 1.037-5.261 2.484-10.25a515.667 515.667 0 0 1 4.716-15.343c1.698-5.24 2.882-8.74 3.553-10.502.503-1.341 1.205-2.693 2.106-4.055.901-1.363 1.98-2.044 3.238-2.044.713 0 1.51.293 2.39.88-2.515 5.743-5.041 12.598-7.577 20.563-2.537 7.965-4.475 15.028-5.817 21.19.713.252 1.76.378 3.144.378 4.318 0 8.395-1.666 12.23-4.999 3.837-3.333 6.907-7.462 9.213-12.388 2.306-4.926 3.458-9.61 3.458-14.054 0-4.863-1.215-8.478-3.647-10.847-2.431-2.369-5.68-3.553-9.746-3.553-2.725 0-5.178.493-7.358 1.478-2.18.985-3.888 2.337-5.124 4.056-1.237 1.719-1.855 3.647-1.855 5.785 0 1.132.188 2.138.566 3.018-1.72 0-2.987-.367-3.805-1.1-.817-.734-1.226-1.708-1.226-2.924 0-1.97.943-3.962 2.83-5.974 1.886-2.012 4.433-3.668 7.64-4.968 3.207-1.3 6.676-1.949 10.407-1.949 5.785 0 10.05 1.614 12.796 4.842 2.746 3.228 4.119 7.483 4.119 12.765 0 5.827-1.51 11.287-4.528 16.38-3.018 5.094-6.937 9.16-11.758 12.2-4.821 3.04-9.768 4.559-14.84 4.559-1.677 0-3.134-.22-4.37-.66zm35.088-4.496c-.775-1.131-1.163-2.536-1.163-4.213 0-1.76.367-3.584 1.1-5.47.734-1.887 1.688-3.459 2.861-4.717 1.174-1.257 2.369-1.886 3.585-1.886.503 0 1.153.168 1.95.503.25-1.928.932-3.521 2.043-4.779 1.11-1.258 2.672-1.886 4.684-1.886 1.677 0 2.914.471 3.71 1.414.797.944 1.195 2.17 1.195 3.679 0 1.467-.388 3.144-1.163 5.03-.776 1.887-1.771 3.773-2.987 5.66.503.251 1.09.377 1.76.377 1.175 0 2.432-.388 3.774-1.163 1.341-.776 2.368-1.96 3.08-3.553l1.133.818c-.88 2.012-2.065 3.542-3.553 4.59s-3.029 1.572-4.622 1.572c-.964 0-2.012-.189-3.144-.566-1.551 1.845-3.249 3.354-5.093 4.528-1.845 1.173-3.648 1.76-5.408 1.76-1.72 0-2.966-.566-3.742-1.698zm16.287-12.827c.691-1.677 1.037-3.187 1.037-4.528 0-1.845-.587-2.767-1.76-2.767-.545 0-1.111.273-1.698.818-.587.545-1.07 1.268-1.447 2.17-.377.9-.566 1.896-.566 2.986 0 .964.168 2.065.504 3.301.335 1.237.775 2.19 1.32 2.861a27.08 27.08 0 0 0 2.61-4.841zm-7.515 10.06c1.09-.838 2.18-1.907 3.27-3.206-2.39-2.096-3.647-5.178-3.773-9.244-.503.252-1.11 1.027-1.823 2.327-.713 1.3-1.32 2.745-1.824 4.338-.503 1.593-.755 2.977-.755 4.15 0 1.93.713 2.893 2.138 2.893.755 0 1.677-.419 2.767-1.257zm15.532 2.39c-.922-1.3-1.383-2.83-1.383-4.59 0-1.51.335-3.396 1.006-5.66.67-2.263 1.457-4.234 2.358-5.91.901-1.677 1.687-2.516 2.358-2.516.293 0 .744.157 1.352.472a6.421 6.421 0 0 1 1.603 1.163c-.88 1.3-1.792 3.165-2.735 5.597-.943 2.431-1.415 4.527-1.415 6.288 0 .796.115 1.624.346 2.484.23.859.744 1.289 1.54 1.289 1.552 0 3.407-1.73 5.566-5.188a80.762 80.762 0 0 0 5.565-10.533c2.515.42 3.773 1.132 3.773 2.138 0 .084-.252.692-.755 1.824a100.053 100.053 0 0 0-2.264 5.722c-.629 1.76-.943 3.29-.943 4.59 0 1.468.566 2.201 1.698 2.201.88 0 1.939-.408 3.175-1.226 1.237-.817 2.505-1.991 3.805-3.521 1.3-1.53 2.431-3.302 3.395-5.314l.944.755c-.923 2.264-2.117 4.297-3.585 6.1-1.467 1.802-3.05 3.217-4.747 4.244-1.698 1.027-3.322 1.54-4.874 1.54-1.844 0-3.028-.639-3.552-1.917-.524-1.279-.786-2.987-.786-5.125-1.426 2.18-2.767 3.898-4.025 5.156-1.258 1.258-2.578 1.886-3.961 1.886-1.384 0-2.537-.65-3.459-1.949zm26.536 16.632c-.838-.691-1.257-1.687-1.257-2.987 0-1.634.618-3.123 1.855-4.464a18.151 18.151 0 0 1 4.307-3.427c1.635-.943 3.794-2.044 6.477-3.301a58.8 58.8 0 0 0 2.515-7.86c-3.396 4.275-6.581 6.413-9.558 6.413-1.677 0-3.008-.587-3.993-1.76-.985-1.174-1.478-2.725-1.478-4.654 0-2.808.923-5.47 2.767-7.986a21.39 21.39 0 0 1 6.854-6.068c2.725-1.53 5.324-2.295 7.798-2.295 1.3 0 2.295.23 2.987.692.691.46 1.037 1.027 1.037 1.698 0 .419-.126.796-.377 1.131-.252.336-.461.524-.629.566-.42-.419-.838-.712-1.258-.88-.419-.168-.943-.252-1.572-.252-2.054 0-4.045.765-5.973 2.296a18.316 18.316 0 0 0-4.685 5.533c-1.195 2.16-1.792 4.098-1.792 5.817 0 .838.178 1.478.534 1.918.356.44.828.66 1.415.66 1.132 0 2.526-.734 4.182-2.2 1.656-1.468 3.3-3.355 4.936-5.66.461-2.348 1.006-4.035 1.635-5.062.629-1.027 1.53-1.54 2.704-1.54.545 0 1.153.083 1.823.25 0 1.09-.46 3.27-1.383 6.54a136.544 136.544 0 0 1-3.333 10.187c2.096-.88 4.119-2.253 6.068-4.119 1.95-1.865 3.343-4.013 4.182-6.445l1.132 1.132c-.922 2.641-2.568 5.03-4.936 7.168-2.369 2.138-4.79 3.773-7.263 4.905-1.929 4.654-3.93 8.332-6.006 11.036-2.075 2.704-4.307 4.056-6.696 4.056-1.174 0-2.18-.346-3.019-1.038zm6.037-4.181c1.341-1.551 2.725-3.899 4.15-7.043-2.725 1.341-4.842 2.61-6.351 3.804-1.51 1.195-2.264 2.463-2.264 3.805 0 .545.116.974.346 1.289.23.314.514.471.849.471.838 0 1.928-.775 3.27-2.326zm20.122-12.01c-.42-1.342-.629-3.04-.629-5.094 0-3.773 1.185-8.898 3.553-15.375 2.369-6.477 5.083-12.23 8.143-17.26 3.06-5.031 5.555-7.547 7.483-7.547.839 0 1.499.461 1.981 1.384.482.922.723 1.95.723 3.081 0 1.928-.702 4.506-2.106 7.734-1.405 3.228-3.25 6.341-5.534 9.338-2.285 2.998-4.643 5.21-7.074 6.634-1.426 3.773-2.138 7.337-2.138 10.69l.063 1.32c.084-.125.272-.586.566-1.383.838-2.18 1.718-4.15 2.64-5.91.923-1.761 2.191-3.407 3.805-4.937 1.614-1.53 3.49-2.295 5.628-2.295 1.928 0 3.333.618 4.213 1.855.88 1.237 1.32 2.694 1.32 4.37 0 .965-.125 1.866-.377 2.704-.251.839-.629 1.908-1.132 3.207-.083.168-.24.556-.471 1.164a11.68 11.68 0 0 0-.503 1.635 6.143 6.143 0 0 0-.157 1.289c0 1.341.565 2.012 1.697 2.012.923 0 2.013-.461 3.27-1.384 1.258-.922 2.494-2.158 3.71-3.71a28.161 28.161 0 0 0 3.144-5.03l1.006 1.069c-1.55 3.437-3.427 6.225-5.628 8.363-2.2 2.138-4.558 3.207-7.074 3.207-1.55 0-2.756-.409-3.615-1.226-.86-.817-1.29-1.876-1.29-3.176 0-.838.294-2.347.88-4.527.63-2.054.944-3.584.944-4.59 0-1.761-.755-2.641-2.264-2.641s-2.777.786-3.804 2.358c-1.027 1.572-2.19 3.888-3.49 6.948-1.048 2.6-1.97 4.538-2.767 5.817-.796 1.278-1.719 1.918-2.767 1.918-.88 0-1.53-.671-1.949-2.013zm12.828-27.166c1.593-2.473 2.893-4.873 3.899-7.2 1.006-2.326 1.509-3.993 1.509-4.999-.503.21-1.405 1.226-2.704 3.05-1.3 1.824-2.662 4.108-4.087 6.854a61.226 61.226 0 0 0-3.585 8.332c1.72-1.551 3.375-3.563 4.968-6.037zm18.424 27.417c-1.467-1.426-2.2-3.25-2.2-5.47 0-2.432.817-5.063 2.452-7.893s3.73-5.198 6.288-7.105c2.557-1.908 5.073-2.861 7.546-2.861 1.3 0 2.39.325 3.27.974.88.65 1.32 1.73 1.32 3.239 0 2.012-.775 3.909-2.326 5.69-1.551 1.782-3.553 3.239-6.006 4.37-2.452 1.133-4.957 1.845-7.514 2.139a7.43 7.43 0 0 0-.126 1.446c0 1.09.304 2.18.912 3.27.608 1.09 1.918 1.635 3.93 1.635 2.557 0 5.167-1.038 7.829-3.113s4.81-4.663 6.445-7.766l1.258 1.006c-1.677 3.773-4.077 6.813-7.2 9.118-3.123 2.306-6.361 3.459-9.715 3.459-2.641 0-4.695-.713-6.163-2.138zm8.584-11.067c1.865-1.048 3.448-2.337 4.747-3.868 1.3-1.53 1.95-3.028 1.95-4.496 0-.46-.084-.775-.252-.943-.168-.168-.44-.251-.817-.251-1.216 0-2.547.576-3.993 1.729-1.447 1.153-2.778 2.61-3.993 4.37-1.216 1.76-2.117 3.521-2.704 5.282 1.509-.168 3.196-.775 5.062-1.823zm19.587 10.847c-.964-.818-1.446-1.918-1.446-3.302 0-.796.157-1.666.472-2.61.314-.942.786-2.085 1.415-3.426.545-1.174.964-2.17 1.257-2.987.294-.818.44-1.54.44-2.17 0-1.593-1.048-2.934-3.144-4.024a70.878 70.878 0 0 1-2.924 6.351c-1.11 2.138-2.106 3.94-2.987 5.408l-.943-1.824c1.929-3.437 3.626-7.231 5.094-11.381-.42-.42-.63-.985-.63-1.698 0-1.09.336-2.117 1.007-3.081.67-.964 1.32-1.447 1.95-1.447.418 0 .764.252 1.037.755.272.503.409.922.409 1.258 0 .167-.095.534-.283 1.1l-.41 1.226c.043.294.21.577.504.85.293.272.838.66 1.635 1.163 1.467.964 2.61 1.896 3.427 2.798.817.901 1.226 2.106 1.226 3.615 0 .923-.157 1.845-.472 2.767-.314.923-.786 2.033-1.414 3.333-.923 1.845-1.384 3.165-1.384 3.962 0 .964.524 1.446 1.572 1.446 1.258 0 2.63-.503 4.12-1.51a20.433 20.433 0 0 0 4.086-3.678c1.237-1.446 2.149-2.798 2.736-4.056l1.509 1.132c-.839 1.887-2.012 3.69-3.521 5.408-1.51 1.719-3.197 3.123-5.062 4.213-1.866 1.09-3.7 1.635-5.503 1.635-1.55 0-2.808-.409-3.773-1.226zm16.161.817c-1.09-1.11-1.635-2.756-1.635-4.936 0-1.635.315-3.72.943-6.257.63-2.536 1.468-5.23 2.516-8.08-1.09-.21-1.824-.398-2.201-.566v-1.95c1.006.126 2.012.231 3.018.315 1.887-4.737 3.91-8.803 6.068-12.199 2.16-3.396 3.91-5.093 5.25-5.093.462 0 .87.167 1.227.503.356.335.535.775.535 1.32 0 .67-.294 1.572-.88 2.704-.588 1.132-1.552 2.85-2.893 5.156-1.845 3.103-3.291 5.702-4.34 7.798 4.822 0 8.658-.147 11.508-.44v2.075c-4.947.503-9.16.754-12.64.754-2.179 5.157-3.269 9.37-3.269 12.64 0 1.718.273 2.934.818 3.647.545.712 1.404 1.069 2.578 1.069 2.096 0 4.244-.954 6.445-2.862 2.201-1.907 4.119-4.496 5.754-7.765l.88.628c-1.719 3.9-3.94 7.075-6.665 9.527-2.725 2.452-5.555 3.679-8.49 3.679-1.928 0-3.437-.556-4.527-1.667zm16.915 15.343c-.838-.691-1.257-1.708-1.257-3.05 0-1.634.618-3.123 1.855-4.464a17.524 17.524 0 0 1 4.307-3.396c1.635-.922 3.752-1.99 6.351-3.207.713-1.802 1.719-5.072 3.019-9.81-1.51 2.139-2.987 3.816-4.434 5.031-1.446 1.216-2.987 1.824-4.621 1.824-1.384 0-2.62-.42-3.71-1.258-1.09-.838-1.635-2.159-1.635-3.961 0-1.426.335-3.239 1.006-5.44.67-2.2 1.467-4.129 2.39-5.785.921-1.656 1.718-2.483 2.389-2.483.419 0 1.048.22 1.886.66.839.44 1.342.912 1.51 1.415-.797 1.09-1.667 2.913-2.61 5.47-.944 2.558-1.415 4.57-1.415 6.037 0 1.551.608 2.327 1.823 2.327 1.258 0 2.62-.734 4.088-2.201 1.467-1.468 2.871-3.27 4.213-5.408.084-.294.21-.985.377-2.075.168-1.09.545-2.044 1.132-2.861.587-.818 1.425-1.227 2.515-1.227.168 0 .839.084 2.013.252-.042 1.048-.535 3.333-1.478 6.854a111.549 111.549 0 0 1-3.302 10.313c2.055-.839 3.993-2.117 5.817-3.836 1.824-1.719 3.26-3.983 4.307-6.791l1.07.88c-.88 2.893-2.4 5.324-4.56 7.294-2.158 1.97-4.642 3.585-7.451 4.842-1.97 4.654-3.972 8.332-6.005 11.036-2.033 2.704-4.224 4.056-6.571 4.056-1.174 0-2.18-.346-3.019-1.038zm5.848-3.961c1.426-1.782 2.83-4.245 4.213-7.389-2.431 1.216-4.517 2.557-6.256 4.025-1.74 1.467-2.61 2.892-2.61 4.276 0 .46.094.87.283 1.226.189.356.493.534.912.534.88 0 2.033-.89 3.458-2.672z"/><path d="M21.13 13.148h12.935c4.424 0 7.9.598 10.429 1.794 2.528 1.197 4.323 3.025 5.384 5.485 1.06 2.46 1.59 5.723 1.59 9.786V50.19c0 4.153-.53 7.517-1.59 10.09-1.061 2.573-2.833 4.503-5.316 5.79-2.483 1.287-5.847 1.93-10.09 1.93H21.13V13.148zM34.2 61.025c2.213 0 3.815-.384 4.809-1.151.993-.768 1.625-1.84 1.896-3.217.27-1.377.406-3.42.406-6.128V29.536c0-2.438-.158-4.29-.474-5.553-.316-1.264-.982-2.201-1.998-2.81-1.015-.61-2.607-.915-4.774-.915h-2.98v40.767h3.116zm29.353-47.877h23.024v7.042h-13.07V35.97h10.294v6.975H73.508V61.16h13.205V68h-23.16V13.148zm33.686 0h6.975l13.341 31.286V13.148h8.262V68h-6.637l-13.408-32.776V68h-8.533V13.148zm41.61 0h6.975l13.34 31.286V13.148h8.262V68h-6.636l-13.408-32.776V68h-8.533V13.148zm41.88 0h9.887V68h-9.887V13.148zm25.73 51.398c-2.46-2.799-3.804-6.975-4.03-12.528l8.6-1.693c.136 3.477.69 6.129 1.66 7.957.97 1.829 2.494 2.743 4.571 2.743 1.535 0 2.675-.463 3.42-1.388.745-.926 1.117-2.179 1.117-3.759 0-2.167-.485-3.995-1.456-5.485-.97-1.49-2.494-3.16-4.57-5.011l-6.908-6.027c-2.122-1.896-3.713-3.849-4.774-5.858-1.061-2.009-1.592-4.48-1.592-7.415 0-4.334 1.264-7.675 3.792-10.022 2.529-2.348 6.027-3.522 10.497-3.522 4.695 0 8.058 1.343 10.09 4.03 2.032 2.686 3.205 6.309 3.521 10.868l-8.6 1.49c-.135-2.934-.53-5.169-1.185-6.704-.655-1.535-1.93-2.302-3.826-2.302-1.535 0-2.743.474-3.623 1.422-.88.948-1.32 2.19-1.32 3.724 0 1.76.36 3.228 1.083 4.402.722 1.174 1.85 2.46 3.386 3.86l6.84 6.027c2.573 2.302 4.582 4.695 6.026 7.178 1.445 2.483 2.167 5.395 2.167 8.736 0 2.618-.575 4.943-1.726 6.975-1.152 2.031-2.766 3.623-4.842 4.774-2.077 1.151-4.47 1.727-7.178 1.727-4.967 0-8.68-1.4-11.14-4.199z"/></g></svg>