<svg xmlns="http://www.w3.org/2000/svg" width="500" height="500" viewBox="0 0 500 500"><g fill="none" fill-rule="evenodd"><path fill="#FFF59D" d="M402.407 351.542l8.735 6.771c-1.241 10.591 2.405 18.348 10.94 23.272l.631 7.244-5.154.393c-3.215 5.636-4.707 10.125-4.479 13.47-3.05 2.817-5.198 5.067-6.445 6.752-.8 1.082-1.722 2.98-2.765 5.697-30.742 2.17-38.895-2.6-24.46-14.307 9.057.311 16.378-8.281 21.964-25.777l1.033-23.515z"/><path stroke="#263238" stroke-width="10" d="M395.432 348.692l8.766 6.765c-1.245 10.582 2.415 18.333 10.98 23.252l.634 7.238-5.174.393c-3.225 5.631-4.723 10.117-4.494 13.459-3.061 2.815-5.217 5.063-6.468 6.747-.804 1.08-1.729 2.978-2.776 5.692-30.853 2.168-39.036-2.597-24.549-14.295 9.09.31 16.438-8.275 22.045-25.756l1.036-23.495z"/><path fill="#FFF59D" d="M275.93 448.528c1.37-1.598 2.396-2.974 3.08-4.126 4.248-7.164 4.909-14.615 7.68-18.695 2.282-3.357 6.043-7.745 11.283-13.163 26.606-22.807 43.153-45.2 49.641-67.181-1.694-17.214 1.21-28.602 8.715-34.165 7.504-5.563 12.407-15.92 14.71-31.068 8.416 36.622 16.326 58.475 23.73 65.56 3.97 3.799 10.038 8.365 18.204 13.7.018 9.95 3.817 17.337 11.395 22.159l.678 19.015c-3.514 3.548-6.523 11.551-9.025 24.008-3.565.539-8.228 1.19-13.989 1.952-7.226 4.246-8.76 8.466-4.6 12.66 4.16 4.195 16.408 4.195 36.746 0 .884-4.828 5.225-8.658 13.022-11.49l1.17-27.08c3.928-7.506 4.65-20.336 2.165-38.491-11.571-7.946-14.257-28.78-8.057-62.503 11.155-16.957 14.915-42.608 11.281-76.953 6.254-14.344 7.734-23.604 4.44-27.78 13.949 6.885 40.367-10.69 33.178-64.816-3.313-24.945-20.745-73.288-33.179-93.547-3.702-6.032-6.978-6.032-9.828 0 19.01 50.018 24.382 83.63 16.12 100.836-8.263 17.206-48.828 27.784-121.696 31.733-15.97 7.775-26.954 16.513-32.953 26.212-10.294 7.618-16.856 13.03-19.686 16.236-2.83 3.205-5.029 7.717-6.596 13.534-6.618 2.607-11.395 5.072-14.33 7.393-2.935 2.322-6.91 6.78-11.928 13.376-11.456 16.834-20.642 29.047-27.558 36.64-7.806 8.57-22.473 16.489-34.46 28.714-9.056 9.234-23.731 26.257-44.028 51.069-7.34 12.14-13.092 22.436-17.255 30.887 6.513.313 10.427 1.341 11.741 3.086 13.069-14.973 22.426-23.053 28.073-24.24 19.7.407 28.18 7.549 25.437 21.425 11.095-4.261 19.5-.31 25.214 11.853 27.427-8.327 39.214-1.661 35.362 19.996 5.605 6.931 8.04 11.654 7.306 14.167 3.162 3.41 6.094 6.438 8.797 9.087z"/><path stroke="#263238" stroke-width="10" d="M268.388 441.069c.918-1.131 1.636-2.133 2.157-3.007 4.264-7.158 4.927-14.603 7.71-18.68 2.289-3.354 6.063-7.738 11.322-13.152 26.702-22.788 43.31-45.163 49.821-67.126-1.7-17.199 1.215-28.578 8.747-34.136 7.53-5.559 12.452-15.906 14.762-31.043 8.447 36.592 16.386 58.427 23.816 65.506 3.984 3.796 10.074 8.359 18.27 13.688.019 9.943 3.83 17.323 11.436 22.142l.68 18.999c-3.526 3.546-6.545 11.542-9.057 23.989-3.578.538-8.258 1.187-14.039 1.95-7.253 4.242-8.792 8.459-4.617 12.65 4.175 4.19 16.468 4.19 36.879 0 .887-4.824 5.244-8.651 13.07-11.481l1.174-27.057c3.942-7.5 4.667-20.32 2.173-38.46-11.614-7.94-14.31-28.757-8.087-62.452 11.195-16.943 14.97-42.573 11.322-76.89 6.277-14.331 7.762-23.584 4.455-27.757 14 6.88 40.514-10.68 33.299-64.762-3.325-24.924-20.82-73.227-33.299-93.47-3.715-6.027-7.003-6.027-9.863 0 19.077 49.977 24.47 83.562 16.177 100.753-8.292 17.192-49.004 27.76-122.136 31.707-16.027 7.769-27.051 16.499-33.072 26.19-10.331 7.612-16.917 13.02-19.757 16.222-2.84 3.203-5.047 7.711-6.62 13.524-6.642 2.605-11.436 5.067-14.382 7.387-2.945 2.32-6.936 6.774-11.97 13.365-11.499 16.82-20.718 29.023-27.658 36.609-7.835 8.563-22.555 16.476-34.586 28.69-9.088 9.227-23.816 26.236-44.186 51.027-10.116 16.656-17.225 29.838-21.329 39.545a78.238 78.238 0 0 1 6.474-2.553c10.267-.122 16.245.938 17.933 3.18 13.069-14.974 22.426-23.054 28.073-24.241 19.7.407 28.18 7.548 25.437 21.425 11.094-4.261 19.5-.31 25.214 11.853 27.426-8.327 39.214-1.661 35.362 19.996 5.604 6.931 8.04 11.654 7.306 14.167.536.579 1.066 1.146 1.59 1.703z"/><path fill="#8D6E63" d="M21 450.893c1.819-10.305 11.285-14.857 28.396-13.657-.163-11.683 5.947-14.825 18.332-9.425 4.463-9.87 12.026-15.549 22.687-17.038 5.448-4.592 13.187-6.14 23.217-4.642-3.891-8.878 2.562-16.234 19.36-22.07 10.267-.122 16.245.938 17.933 3.18 13.068-14.974 22.426-23.054 28.072-24.241 19.701.407 28.18 7.549 25.438 21.425 11.094-4.261 19.499-.31 25.213 11.853 27.427-8.327 39.214-1.661 35.363 19.996 5.604 6.931 8.04 11.654 7.305 14.167 13.229 14.263 22.442 21.876 27.641 22.838 5.199.963 2.874 3.356-6.974 7.181-19.22 3.076-37.758 2.25-55.614-2.477-9.37 9.353-26.482 7.823-51.334-4.591-1.802 2.706-3.737 4.236-5.806 4.591-5.936 1.02-15.133-.961-18.403 0-3.314.975-4.826 3.945-8.14 4.92-6.485-2.303-9.754-4.417-9.805-6.342-25.435 6.436-39.853 5.167-43.254-3.806-15.187 1.488-26.835 2.138-34.944 1.948-9.586-.224-24.48-1.494-44.683-3.81z"/><path stroke="#263238" stroke-width="10" d="M16 459.893c1.819-10.305 11.285-14.857 28.396-13.657-.163-11.683 5.947-14.825 18.332-9.425 4.463-9.87 12.026-15.549 22.687-17.038 5.448-4.592 13.187-6.14 23.217-4.642-3.891-8.878 2.562-16.234 19.36-22.07 10.267-.122 16.245.938 17.933 3.18 13.068-14.974 22.426-23.054 28.072-24.241 19.701.407 28.18 7.549 25.438 21.425 11.094-4.261 19.499-.31 25.213 11.853 27.427-8.327 39.214-1.661 35.363 19.996 5.604 6.931 8.04 11.654 7.305 14.167 13.229 14.263 22.442 21.876 27.641 22.838 5.199.963 2.874 3.356-6.974 7.181-19.22 3.076-37.758 2.25-55.614-2.477-9.37 9.353-26.482 7.823-51.334-4.591-1.802 2.706-3.737 4.236-5.806 4.591-5.936 1.02-15.133-.961-18.403 0-3.314.975-4.826 3.945-8.14 4.92-6.485-2.303-9.754-4.417-9.805-6.342-25.435 6.436-39.853 5.167-43.254-3.806-15.187 1.488-26.835 2.138-34.944 1.948-9.586-.224-24.48-1.494-44.683-3.81z"/><path stroke="#263238" stroke-width="9" d="M158 444.017c7.554-6.782 13.946-10.12 19.177-10.014 7.478.15 18.688 3.728 26.713 10.014 8.098-6.79 13.74-10.128 16.925-10.014 4.803.172 7.527 4.113 11.808 11.149"/></g></svg>